<svg xmlns="http://www.w3.org/2000/svg" viewBox="0 0 451.11 458.5"><defs><style>.cls-1{isolation:isolate;}.cls-2{fill:#eef;}.cls-3{opacity:0.3;}.cls-18,.cls-20,.cls-22,.cls-23,.cls-4{fill:none;}.cls-4{stroke:#7371fc;stroke-miterlimit:10;}.cls-5{fill:#32338c;}.cls-6{fill:#7371fc;}.cls-7{fill:#f8ab73;}.cls-8{fill:#fe814b;}.cls-9{fill:#fe642f;}.cls-10,.cls-14{fill:#f8ab74;}.cls-11{fill:#fe632e;}.cls-12{fill:#32328c;}.cls-13{fill:#fe642e;}.cls-14,.cls-24{mix-blend-mode:multiply;}.cls-14{opacity:0.4;}.cls-15,.cls-24{fill:#91c4fb;}.cls-16{fill:#443dc3;}.cls-17{fill:#fefffd;}.cls-18,.cls-20{stroke:#32338c;}.cls-18,.cls-20,.cls-22,.cls-23{stroke-linecap:round;stroke-linejoin:round;}.cls-18{stroke-width:4.03px;}.cls-19{fill:#fff;}.cls-20{stroke-width:3.88px;}.cls-21{fill:#eeeefe;}.cls-22{stroke:#fe814b;}.cls-22,.cls-23{stroke-width:3.2px;}.cls-23{stroke:#91c4fb;}.cls-25{fill:#f8ab72;}</style></defs><g class="cls-1"><g id="Layer_2" data-name="Layer 2"><g id="BACKGROUND"><path class="cls-2" d="M48.29,349.36c-53.2-62.65-34.56-155.51-2.89-183.64s81.92-43.6,108.84-76.48,57.93-56.42,114.61-39.45,55.84,61,72.84,88.3,92.81,42.49,88.5,112.47-52.44,69.85-74.38,87.09S299.25,436.3,230,437.15C145.09,438.19,93.32,402.38,48.29,349.36Z"/><g class="cls-3"><path class="cls-4" d="M240,12.11l-3,10.43a34,34,0,0,0-7.78,3.17l-9.61-5.28L211,28.91l5.34,9.48a33.23,33.23,0,0,0-3.21,7.69L202.6,49v12l10.57,3a33.23,33.23,0,0,0,3.21,7.69L211,81.17l8.58,8.48,9.61-5.28A34,34,0,0,0,237,87.54L240,98h12.17l3-10.43A34,34,0,0,0,263,84.37l9.61,5.28,8.58-8.48-5.34-9.48A32.8,32.8,0,0,0,279,64l10.57-3V49l-10.57-3a32.8,32.8,0,0,0-3.21-7.69l5.34-9.48-8.58-8.48L263,25.71a34,34,0,0,0-7.78-3.17l-3-10.43ZM246.1,32.6A22.44,22.44,0,1,1,223.37,55,22.63,22.63,0,0,1,246.1,32.6Z"/></g><g class="cls-3"><path class="cls-4" d="M417.63,209.75l-2,6.94a22.18,22.18,0,0,0-5.18,2.11l-6.39-3.51-5.71,5.64,3.55,6.31a22.36,22.36,0,0,0-2.14,5.11l-7,2v8l7,2a22.36,22.36,0,0,0,2.14,5.11l-3.55,6.31,5.71,5.64,6.39-3.51a22.18,22.18,0,0,0,5.18,2.11l2,6.94h8.09l2-6.94a22.54,22.54,0,0,0,5.18-2.11l6.39,3.51L445,255.7l-3.55-6.31a22.33,22.33,0,0,0,2.13-5.11l7-2v-8l-7-2a22.33,22.33,0,0,0-2.13-5.11l3.55-6.31-5.71-5.64-6.39,3.51a22.54,22.54,0,0,0-5.18-2.11l-2-6.94Zm4,13.64a14.93,14.93,0,1,1-15.12,14.93A15.06,15.06,0,0,1,421.67,223.39Z"/></g><g class="cls-3"><path class="cls-4" d="M54.59,228,50.25,243.1A49.75,49.75,0,0,0,39,247.68l-13.89-7.62L12.69,252.31,20.42,266a48.68,48.68,0,0,0-4.65,11.12L.5,281.41v17.37l15.27,4.28a48.61,48.61,0,0,0,4.65,11.11l-7.73,13.71,12.42,12.26L39,332.51a49.32,49.32,0,0,0,11.25,4.59l4.34,15.07H72.18l4.33-15.07a49.39,49.39,0,0,0,11.26-4.59l13.89,7.63,12.41-12.26-7.72-13.71A48.14,48.14,0,0,0,111,303.06l15.28-4.28V281.41L111,277.14A48.21,48.21,0,0,0,106.35,266l7.72-13.71-12.41-12.25-13.89,7.62a49.82,49.82,0,0,0-11.26-4.58L72.18,228Zm8.79,29.64A32.71,32.71,0,0,1,96.24,290.1c0,17.86-14.76,32.44-32.86,32.44S30.52,308,30.52,290.1,45.29,257.66,63.38,257.66Z"/></g><path class="cls-5" d="M211.09,421.59h0A22.12,22.12,0,0,1,223,410l.16-.07-.72-.32a22.14,22.14,0,0,1-11.21-11.1l-.1-.23-.56,1.1a22.06,22.06,0,0,1-9.94,9.79l-1.53.76.09,0a22.14,22.14,0,0,1,11.61,10.92Z"/><path class="cls-6" d="M226.23,428.73h0a11,11,0,0,1,5.93-5.78l.08,0-.36-.16a11.06,11.06,0,0,1-5.6-5.55l-.05-.11-.28.55a11.09,11.09,0,0,1-5,4.89l-.77.38,0,0a11.06,11.06,0,0,1,5.8,5.46Z"/><path class="cls-6" d="M420.41,128.22h0a16.48,16.48,0,0,0-8.87-8.65l-.12-.06.54-.24a16.5,16.5,0,0,0,8.38-8.3l.07-.16.42.82a16.6,16.6,0,0,0,7.43,7.32l1.15.56-.07,0a16.59,16.59,0,0,0-8.68,8.17Z"/><path class="cls-5" d="M409.1,133.56h0a8.29,8.29,0,0,0-4.44-4.33l-.06,0,.27-.12a8.27,8.27,0,0,0,4.19-4.15l0-.09.21.41a8.22,8.22,0,0,0,3.71,3.66l.58.29h0a8.28,8.28,0,0,0-4.34,4.08Z"/><path class="cls-6" d="M21.07,215.78h0a16.51,16.51,0,0,0-8.87-8.65l-.12,0,.54-.24a16.58,16.58,0,0,0,8.38-8.3l.07-.17.42.82a16.55,16.55,0,0,0,7.43,7.32l1.15.57-.07,0a16.53,16.53,0,0,0-8.68,8.16Z"/><path class="cls-5" d="M9.76,221.12h0a8.31,8.31,0,0,0-4.44-4.32l-.06,0,.27-.12a8.31,8.31,0,0,0,4.19-4.15l0-.08.2.41a8.34,8.34,0,0,0,3.72,3.66l.58.28h0a8.3,8.3,0,0,0-4.34,4.09Z"/></g><g id="OBJECTS"><path class="cls-5" d="M325.18,91.86a63.14,63.14,0,0,1,21,6.77,170,170,0,0,1,50.46,39.93c5.68,6.6,11.05,14.12,11.94,22.78,1,9.93-4,19.37-8.8,28.1-4,7.27-8.88,15.21-16.92,17.32-6.58,1.73-13.48-1-19.43-4.35-23.25-12.94-40.69-35-50.69-59.69a78.94,78.94,0,0,1-5.84-36.19c.23-3.59-9.18-3.92-6.65-6.77C303.87,95.72,315.07,90.57,325.18,91.86Z"/><path class="cls-7" d="M384.05,113.45a22.06,22.06,0,0,1-2.54,2.92,34.6,34.6,0,0,1-11.19,6.92,24.21,24.21,0,0,1-9.51,2.13,10.15,10.15,0,0,1-1.1-.07,5.07,5.07,0,0,0,.78,1.76c1.21,1.64,3.46,2.06,5.49,2.18a35.75,35.75,0,0,0,16-2.79,2.81,2.81,0,0,0,1.43-1,3.07,3.07,0,0,0,.26-1.78A67.18,67.18,0,0,1,384.05,113.45Z"/><path class="cls-8" d="M370.32,123.29a34.6,34.6,0,0,0,11.19-6.92,22.06,22.06,0,0,0,2.54-2.92c.56-5.54,1.51-11,1.8-16.64-5.69-1.34-14.87,4.56-18.83,8.29-5.11,4.8-8.32,11.85-7.56,18.82a10,10,0,0,0,.25,1.43,10.15,10.15,0,0,0,1.1.07A24.21,24.21,0,0,0,370.32,123.29Z"/><path class="cls-9" d="M408.63,71.63c3.47-4.87,7-9.81,9.1-15.39s2.8-12,.51-17.49-8-9.83-13.93-9.32c1.87-3.83-.41-8.08-3.53-11s-7.42-4.18-11.64-4.83c-11.92-1.84-24.09.66-36.14.13-4.45-.2-9-.85-12.87-3.05S333.2,4.45,333.2,0c-1.56,3.39-3.31,7.49-3.05,11.21s2.3,7.5,5.73,9c-3.46,1-7.08-1.15-9.32-4s-3.14-6.49-3.38-10.08a19.87,19.87,0,0,0-7.86,10.65A25.36,25.36,0,0,0,314,28.87,14.88,14.88,0,0,0,320.33,39a9,9,0,0,1-5-.19,7.5,7.5,0,0,0,3,5.9,17.43,17.43,0,0,0,6.15,2.91c7.5,2.25,15.38,2.86,23.07,4.35,18.15,3.53,34.91,11.94,52.16,18.59C402.13,71.5,406.12,72.25,408.63,71.63Z"/><path class="cls-10" d="M389.7,68.92c-2.6-9.22-1.22-19.14,1.65-28.27-9.07,8.54-22.41,10.64-34.76,9a35.77,35.77,0,0,0,10.9-8.2c-12.27-.8-24.93,2.19-37.17,1a67.22,67.22,0,0,0-2.81,12.73,92.93,92.93,0,0,0,1.08,26.47c1.59,9.54,4.24,19.23,10.28,26.78S355,121,364.37,118.56a29.7,29.7,0,0,0,9.63-4.8c10.83-7.68,18.7-18.92,24-31.16A29.92,29.92,0,0,1,389.7,68.92Z"/><path class="cls-9" d="M367.49,41.42a35.77,35.77,0,0,1-10.9,8.2c12.35,1.67,25.69-.43,34.76-9-2.87,9.13-4.25,19.05-1.65,28.27A29.92,29.92,0,0,0,398,82.6q1-2.38,1.94-4.81a64.61,64.61,0,0,0,4.51-21.69c.06-7.42-1.77-15-6.05-21.05-6-8.54-16.29-13.25-26.56-15.18a40.45,40.45,0,0,0-15.23-.32c-6.67,1.32-15.75,5.07-20.08,10.68a41.48,41.48,0,0,0-6.19,12.24C342.56,43.61,355.22,40.62,367.49,41.42Z"/><path class="cls-7" d="M392.88,69A22.88,22.88,0,0,0,392.17,81c.57,3.09,1.83,6.44,4.68,7.78a7.45,7.45,0,0,0,6.69-.56,15.53,15.53,0,0,0,4.89-4.89,21.47,21.47,0,0,0,4-9.63A12.27,12.27,0,0,0,409.53,64c-2.34-2.5-6.47-4.33-9.7-2.83A14,14,0,0,0,392.88,69Z"/><path class="cls-5" d="M407.92,67.69A4.74,4.74,0,0,0,403.63,66a5.9,5.9,0,0,0-3.93,2.26,10.57,10.57,0,0,0-2.07,4.19,37.1,37.1,0,0,0-.8,4.79l-1-.41a5.07,5.07,0,0,1,4.14-2,3.38,3.38,0,0,1,2.2,1A4.25,4.25,0,0,1,403.28,78a4.63,4.63,0,0,1-.1,2.31A5.12,5.12,0,0,1,402,82.19a7.54,7.54,0,0,1-3.8,2,8,8,0,0,0,3.41-2.37,5,5,0,0,0,.9-1.79,3.9,3.9,0,0,0,0-1.92,2.93,2.93,0,0,0-2.56-2.31,4.23,4.23,0,0,0-3.22,1.71L395.53,79l.21-1.88a29.39,29.39,0,0,1,.86-4.94A10.89,10.89,0,0,1,399,67.69a6.62,6.62,0,0,1,4.58-2.23A4.82,4.82,0,0,1,407.92,67.69Z"/><path class="cls-5" d="M356.09,58.56a37.44,37.44,0,0,1,0,13.92,39.44,39.44,0,0,1-4.83,13.09l-.13-.42a15.37,15.37,0,0,0,2.14,1.09,16.88,16.88,0,0,0,2.32.73,11.21,11.21,0,0,1-2.43-.4,12.61,12.61,0,0,1-2.33-.87l-.26-.13.14-.29a55.62,55.62,0,0,0,4.32-13A59.86,59.86,0,0,0,356.09,58.56Z"/><path class="cls-11" d="M353,99.76A7.52,7.52,0,0,0,356.3,101c3.13.3,6.08-2.56,8.15-5.29A15.69,15.69,0,0,0,353,99.76Z"/><path class="cls-5" d="M355.13,94.56c-4-.41-9.91-4-9.91-4S348.6,97,353,99.76a15.69,15.69,0,0,1,11.49-4,33.75,33.75,0,0,0,2.93-4.62S359.12,95,355.13,94.56Z"/><path class="cls-12" d="M344.52,67.88c.11,2.13-.91,3.91-2.28,4s-2.56-1.6-2.67-3.73.92-3.91,2.29-4S344.42,65.75,344.52,67.88Z"/><path class="cls-12" d="M372.33,68.4c.11,2.13-.92,3.91-2.28,4s-2.56-1.61-2.67-3.73.92-3.91,2.29-4S372.23,66.27,372.33,68.4Z"/><path class="cls-13" d="M333.94,59.61a12.32,12.32,0,0,1,1.74-3.69A13.91,13.91,0,0,1,337,54.28a12,12,0,0,1,1.68-1.4,19.79,19.79,0,0,1,1.92-1.25,4.28,4.28,0,0,1,2.25-.51A4.94,4.94,0,0,1,347,53.37l-.12.43a28.78,28.78,0,0,1-3.45,1.75,3.91,3.91,0,0,1-1.48.3,5.88,5.88,0,0,0-1.61.21,9.33,9.33,0,0,0-1.56.61,12.26,12.26,0,0,0-1.55.84,17.52,17.52,0,0,0-2.93,2.33Z"/><path class="cls-13" d="M377,59.84A17.52,17.52,0,0,0,374,57.51a12.26,12.26,0,0,0-1.55-.84,9.33,9.33,0,0,0-1.56-.61,5.76,5.76,0,0,0-1.6-.21,4,4,0,0,1-1.49-.3,28.78,28.78,0,0,1-3.45-1.75l-.12-.43a4.94,4.94,0,0,1,4.13-2.25,4.28,4.28,0,0,1,2.25.51,19.79,19.79,0,0,1,1.92,1.25,12.69,12.69,0,0,1,1.69,1.4,13.82,13.82,0,0,1,1.35,1.64,12.6,12.6,0,0,1,1.75,3.69Z"/><path class="cls-14" d="M343.13,85.83c0,1.7-2.3,3.08-5.14,3.08s-5.14-1.38-5.14-3.08,2.3-3.08,5.14-3.08S343.13,84.13,343.13,85.83Z"/><path class="cls-14" d="M378.79,85.83c0,1.7-2.3,3.08-5.14,3.08s-5.14-1.38-5.14-3.08,2.3-3.08,5.14-3.08S378.79,84.13,378.79,85.83Z"/><path class="cls-10" d="M333.36.17a16.43,16.43,0,0,0,1.35,10.34,16.46,16.46,0,0,0,7,7.56,22.85,22.85,0,0,0,10.16,2.18,102.22,102.22,0,0,0,10.63-.51c7.09-.56,14.24-1.53,21.45-1a20.79,20.79,0,0,1,10.24,3.3,13.13,13.13,0,0,1,3.65,4,9.58,9.58,0,0,1,1.35,5.15,9.84,9.84,0,0,0-1.61-5,12.76,12.76,0,0,0-3.7-3.69,20.21,20.21,0,0,0-10-2.89c-7.07-.37-14.17.57-21.28,1.22a101.45,101.45,0,0,1-10.76.41c-3.58-.11-7.32-.6-10.54-2.44a17.09,17.09,0,0,1-7.09-8.08A16.31,16.31,0,0,1,333.36.17Z"/><path class="cls-10" d="M395.13,37.34a12,12,0,0,0-7.42-9,21,21,0,0,0-11.89-.95A114.62,114.62,0,0,0,364,30.56a88,88,0,0,1-12.06,2.69,45.17,45.17,0,0,1-12.4.11c-4.08-.59-8.25-1.74-11.61-4.33a18.49,18.49,0,0,1-6.74-10.28,18.14,18.14,0,0,1,1.37-12.08,18.31,18.31,0,0,0-.84,11.94,17.88,17.88,0,0,0,6.72,9.73,24.59,24.59,0,0,0,11.24,4,44.67,44.67,0,0,0,12.11-.2,87.43,87.43,0,0,0,11.93-2.57,97.49,97.49,0,0,1,12-3,21.67,21.67,0,0,1,12.25,1.31,13.47,13.47,0,0,1,4.86,3.83A10.54,10.54,0,0,1,395.13,37.34Z"/><path class="cls-10" d="M390.94,35.41A8.55,8.55,0,0,0,385,31.58a13,13,0,0,0-7,1,22.64,22.64,0,0,0-6.09,4c-1.86,1.62-3.63,3.4-5.48,5.08a54.11,54.11,0,0,1,4.89-5.72,19.76,19.76,0,0,1,6.25-4.36,15.09,15.09,0,0,1,3.74-1,11.56,11.56,0,0,1,3.89.19,9.08,9.08,0,0,1,3.49,1.66A7.38,7.38,0,0,1,390.94,35.41Z"/><path class="cls-10" d="M405,35.2a6.68,6.68,0,0,1,4.47.16,8.8,8.8,0,0,1,3.66,2.78,14.75,14.75,0,0,1,2.81,8.65,22.18,22.18,0,0,1-1.74,8.9,33.83,33.83,0,0,1-2,4,40.29,40.29,0,0,1-2.53,3.7c.71-1.32,1.44-2.61,2.05-4a34.38,34.38,0,0,0,1.69-4.08,24.53,24.53,0,0,0,1.43-8.57,15.11,15.11,0,0,0-2.38-8.17,8.13,8.13,0,0,0-3.19-2.79A6.82,6.82,0,0,0,405,35.2Z"/><path class="cls-10" d="M397.14,40a4.81,4.81,0,0,1,3.14.52,7.09,7.09,0,0,1,2.43,2.22,16.5,16.5,0,0,1,2.3,6,20.34,20.34,0,0,1,.2,6.42,18.53,18.53,0,0,1-.66,3.13c-.17.51-.34,1-.54,1.5a2.75,2.75,0,0,1-.36.73c-.16.21-.46.43-.72.28.28.08.47-.16.58-.37a2.47,2.47,0,0,0,.21-.73c.12-.51.21-1,.29-1.54a24.57,24.57,0,0,0,.33-3.08,25.66,25.66,0,0,0-.42-6.13A19.1,19.1,0,0,0,402,43.16a6.87,6.87,0,0,0-2-2.22A5,5,0,0,0,397.14,40Z"/><rect class="cls-2" x="44.82" y="78" width="126.42" height="137.41" transform="translate(-17.88 15.03) rotate(-7.35)"/><rect class="cls-6" x="34.11" y="48.74" width="126.42" height="29.94" transform="translate(-7.35 12.98) rotate(-7.35)"/><rect class="cls-15" x="28.2" y="87.18" width="17.21" height="137.41" transform="translate(-19.65 5.99) rotate(-7.35)"/><rect class="cls-16" x="17.49" y="57.93" width="17.21" height="29.94" transform="translate(-9.11 3.94) rotate(-7.35)"/><rect class="cls-17" x="47.84" y="93.81" width="19.32" height="26.23" transform="matrix(0.99, -0.13, 0.13, 0.99, -13.21, 8.24)"/><rect class="cls-17" x="70.58" y="90.88" width="19.32" height="26.23" transform="matrix(0.99, -0.13, 0.13, 0.99, -12.65, 11.12)"/><rect class="cls-17" x="93.32" y="87.94" width="19.32" height="26.23" transform="translate(-12.09 14.01) rotate(-7.35)"/><rect class="cls-17" x="116.06" y="85.01" width="19.32" height="26.23" transform="translate(-11.52 16.89) rotate(-7.35)"/><rect class="cls-17" x="138.8" y="82.07" width="19.32" height="26.23" transform="translate(-10.96 19.78) rotate(-7.35)"/><rect class="cls-17" x="51.63" y="123.22" width="19.32" height="26.23" transform="matrix(0.99, -0.13, 0.13, 0.99, -16.94, 8.96)"/><rect class="cls-17" x="74.37" y="120.29" width="19.32" height="26.23" transform="translate(-16.38 11.85) rotate(-7.35)"/><rect class="cls-17" x="97.11" y="117.35" width="19.32" height="26.23" transform="matrix(0.99, -0.13, 0.13, 0.99, -15.82, 14.74)"/><rect class="cls-17" x="119.85" y="114.42" width="19.32" height="26.23" transform="translate(-15.25 17.62) rotate(-7.35)"/><rect class="cls-17" x="142.59" y="111.49" width="19.32" height="26.23" transform="matrix(0.99, -0.13, 0.13, 0.99, -14.69, 20.51)"/><rect class="cls-17" x="55.43" y="152.64" width="19.32" height="26.23" transform="matrix(0.99, -0.13, 0.13, 0.99, -20.68, 9.69)"/><rect class="cls-17" x="78.17" y="149.7" width="19.32" height="26.23" transform="translate(-20.11 12.58) rotate(-7.35)"/><rect class="cls-17" x="100.91" y="146.77" width="19.32" height="26.23" transform="translate(-19.55 15.46) rotate(-7.35)"/><rect class="cls-17" x="123.65" y="143.83" width="19.32" height="26.23" transform="translate(-18.99 18.35) rotate(-7.35)"/><rect class="cls-17" x="146.39" y="140.9" width="19.32" height="26.23" transform="translate(-18.43 21.24) rotate(-7.35)"/><rect class="cls-17" x="59.22" y="182.05" width="19.32" height="26.23" transform="translate(-24.41 10.42) rotate(-7.35)"/><rect class="cls-17" x="81.96" y="179.11" width="19.32" height="26.23" transform="translate(-23.84 13.3) rotate(-7.35)"/><rect class="cls-17" x="104.7" y="176.18" width="19.32" height="26.23" transform="translate(-23.28 16.19) rotate(-7.35)"/><rect class="cls-17" x="127.44" y="173.25" width="19.32" height="26.23" transform="translate(-22.72 19.07) rotate(-7.35)"/><rect class="cls-17" x="150.18" y="170.31" width="19.32" height="26.23" transform="translate(-22.16 21.96) rotate(-7.35)"/><path class="cls-18" d="M25.72,57.85l-1.09-8.43A9.66,9.66,0,0,1,33,38.6l5.86-.76a9.67,9.67,0,0,1,10.82,8.35l1.88,14.54a9.66,9.66,0,0,1-8.35,10.81h0"/><path class="cls-18" d="M42.45,55.69l-1.09-8.43a9.67,9.67,0,0,1,8.35-10.82l5.86-.76A9.67,9.67,0,0,1,66.39,44l1.87,14.54a9.66,9.66,0,0,1-8.34,10.82h0"/><path class="cls-18" d="M59.18,53.54,58.09,45.1a9.67,9.67,0,0,1,8.35-10.82l5.86-.75a9.66,9.66,0,0,1,10.82,8.34L85,56.41a9.65,9.65,0,0,1-8.34,10.82h0"/><path class="cls-18" d="M75.91,51.38l-1.09-8.44a9.67,9.67,0,0,1,8.34-10.82L89,31.37a9.67,9.67,0,0,1,10.82,8.34l1.87,14.54a9.66,9.66,0,0,1-8.34,10.82h0"/><path class="cls-18" d="M92.64,49.22l-1.09-8.44A9.65,9.65,0,0,1,99.89,30l5.87-.76a9.65,9.65,0,0,1,10.81,8.34l1.88,14.54a9.66,9.66,0,0,1-8.34,10.82h0"/><path class="cls-18" d="M109.37,47.06l-1.09-8.44a9.65,9.65,0,0,1,8.34-10.81l5.87-.76a9.65,9.65,0,0,1,10.81,8.34l1.88,14.55a9.65,9.65,0,0,1-8.34,10.81h0"/><path class="cls-18" d="M126.09,44.9,125,36.47a9.65,9.65,0,0,1,8.34-10.82l5.87-.76A9.66,9.66,0,0,1,150,33.24l1.88,14.54a9.66,9.66,0,0,1-8.35,10.81h0"/><circle class="cls-5" cx="215.65" cy="232.04" r="153.24"/><circle class="cls-6" cx="222.86" cy="232.04" r="153.24"/><path class="cls-19" d="M246.75,307.7c27.66-11.16,52.76-29.72,69-54.7,18.91-29,24.62-64.2,23-99.2A139.83,139.83,0,0,0,101.94,302.25C146.81,323.47,200.59,326.32,246.75,307.7Z"/><path class="cls-2" d="M338.75,153.8c1.66,35-4.05,70.19-23,99.2-16.28,25-41.38,43.54-69,54.7-46.16,18.62-99.94,15.77-144.81-5.45A139.83,139.83,0,1,0,338.75,153.8Z"/><polygon class="cls-5" points="221.33 233.84 155.56 175.21 224.38 230.23 221.33 233.84"/><polygon class="cls-5" points="225.48 230.38 255.84 341.82 220.24 233.69 225.48 230.38"/><circle class="cls-8" cx="222.86" cy="232.04" r="10.36"/><line class="cls-20" x1="222.86" y1="92.22" x2="222.86" y2="121.94"/><line class="cls-20" x1="222.86" y1="342.13" x2="222.86" y2="371.85"/><line class="cls-20" x1="362.67" y1="232.04" x2="332.95" y2="232.04"/><line class="cls-20" x1="112.77" y1="232.04" x2="83.04" y2="232.04"/><line class="cls-20" x1="104.84" y1="157.07" x2="129.93" y2="173"/><line class="cls-20" x1="315.79" y1="291.07" x2="340.87" y2="307.01"/><line class="cls-20" x1="297.83" y1="114.02" x2="281.89" y2="139.11"/><line class="cls-20" x1="163.82" y1="324.96" x2="147.89" y2="350.05"/><line class="cls-20" x1="340.87" y1="157.07" x2="315.79" y2="173"/><line class="cls-20" x1="129.93" y1="291.07" x2="104.84" y2="307.01"/><line class="cls-20" x1="147.89" y1="114.02" x2="163.82" y2="139.11"/><line class="cls-20" x1="281.89" y1="324.96" x2="297.83" y2="350.05"/><rect class="cls-10" x="20.02" y="332.17" width="144.3" height="79.31" transform="translate(-125.78 56.79) rotate(-20.75)"/><polygon class="cls-8" points="92.17 371.83 10.65 360.31 95.49 380.59 145.59 309.18 92.17 371.83"/><rect class="cls-5" x="273.77" y="278.61" width="129.25" height="166.73" transform="translate(92.21 -68.06) rotate(13.28)"/><rect class="cls-15" x="276.11" y="279.16" width="129.25" height="166.73" transform="translate(92.4 -68.58) rotate(13.28)"/><rect class="cls-19" x="285.96" y="295.19" width="108.09" height="140.89" transform="translate(93.09 -68.33) rotate(13.28)"/><path class="cls-5" d="M342.57,263.92h38.7a11.25,11.25,0,0,1,11.25,11.25v6.45a0,0,0,0,1,0,0h-61.2a0,0,0,0,1,0,0v-6.45A11.25,11.25,0,0,1,342.57,263.92Z" transform="translate(72.35 -75.85) rotate(13.28)"/><circle class="cls-21" cx="318.47" cy="309.49" r="10.39" transform="translate(-57.12 72.56) rotate(-11.94)"/><polyline class="cls-22" points="313.62 305.08 317.96 312.11 330.45 304.39"/><line class="cls-23" x1="338.72" y1="307.59" x2="395.97" y2="321.11"/><line class="cls-23" x1="337.22" y1="313.91" x2="394.48" y2="327.43"/><line class="cls-23" x1="335.73" y1="320.24" x2="392.99" y2="333.75"/><path class="cls-21" d="M321,344.07a10.39,10.39,0,1,1-7.72-12.5A10.39,10.39,0,0,1,321,344.07Z"/><polyline class="cls-22" points="306.02 337.28 310.36 344.31 322.85 336.59"/><line class="cls-23" x1="331.12" y1="339.79" x2="388.37" y2="353.31"/><line class="cls-23" x1="329.62" y1="346.11" x2="386.88" y2="359.63"/><line class="cls-23" x1="328.13" y1="352.44" x2="385.39" y2="365.95"/><circle class="cls-21" cx="303.27" cy="373.89" r="10.39" transform="translate(-164.69 486.93) rotate(-64.53)"/><polyline class="cls-22" points="298.42 369.48 302.76 376.51 315.25 368.79"/><line class="cls-23" x1="323.52" y1="371.99" x2="380.77" y2="385.5"/><line class="cls-23" x1="322.02" y1="378.31" x2="379.28" y2="391.83"/><line class="cls-23" x1="320.53" y1="384.64" x2="377.79" y2="398.15"/><path class="cls-24" d="M314.37,281.26h88.8a0,0,0,0,1,0,0v5.17a4.55,4.55,0,0,1-4.55,4.55h-79.7a4.55,4.55,0,0,1-4.55-4.55v-5.17A0,0,0,0,1,314.37,281.26Z" transform="translate(75.33 -74.77) rotate(13.28)"/><circle class="cls-21" cx="295.9" cy="406.14" r="10.39" transform="translate(-171.2 220.87) rotate(-32.29)"/><polyline class="cls-22" points="291.05 401.74 295.39 408.76 307.88 401.04"/><line class="cls-23" x1="316.15" y1="404.24" x2="373.4" y2="417.76"/><line class="cls-23" x1="314.66" y1="410.57" x2="371.91" y2="424.08"/><line class="cls-23" x1="313.17" y1="416.89" x2="370.42" y2="430.4"/><path class="cls-19" d="M384.05,145.42a89.34,89.34,0,0,1-4.77,9.54,90.44,90.44,0,0,1-5.75,9,89.41,89.41,0,0,1,4.78-9.54A92.19,92.19,0,0,1,384.05,145.42Z"/><path class="cls-5" d="M398.79,191.26s-10.09,15.83-20.08,27.63-24.08,25-24.08,25L279.3,212.36l11.06-25.81,55.15,17,31.78-45Z"/><path class="cls-25" d="M278.48,181.56l11.88,5-7.79,18.18-7.72-2.63-17.05.7-5-2.51a3.59,3.59,0,0,1-1.53-5l1.36-2.43-1.21-.95a3.59,3.59,0,0,1-.28-5.42l1.35-1.32-1.84-2.49a3.6,3.6,0,0,1,1.23-5.33l1.87-1-.61-3.31a3.6,3.6,0,0,1,2.69-4.14h0a8.43,8.43,0,0,1,6.95,1.35Z"/><path class="cls-25" d="M278.69,182.78c-3.62-7.74-7.29-15.69-7.95-24.21a1.45,1.45,0,0,0-.42-1.13,1.3,1.3,0,0,0-.7-.17,5.06,5.06,0,0,0-4.54,3.33,7.52,7.52,0,0,0,.41,5.82,2.73,2.73,0,0,1,.39,1.25,2.45,2.45,0,0,1-.4,1.06c-.63,1.1-1.25,2.21-1.88,3.32A34.65,34.65,0,0,0,278.69,182.78Z"/><path class="cls-5" d="M271.79,177.63c-.72-.45-1.4-.94-2.07-1.44s-1.32-1-2-1.56-1.28-1.08-1.89-1.65-1.22-1.14-1.79-1.77c.72.45,1.4.94,2.07,1.44s1.32,1,2,1.55,1.28,1.08,1.89,1.66S271.22,177,271.79,177.63Z"/><path class="cls-10" d="M267.87,76l18.24,7a5.66,5.66,0,0,1,3.58,5.82l-.92,9.28-6.31,10.34a2.64,2.64,0,0,1-1.66-3.62c.93-2.9,4-10.65,4-10.65V88.71s-3,12.65-5.85,15-13.17-2.24-16-4.51c-1.36-1.11,1.06-4.69,1.39-10C264.76,83.55,263.16,76.2,267.87,76Z"/><path class="cls-5" d="M279.54,80.22a29.4,29.4,0,0,1,.21,6.36,32.44,32.44,0,0,1-3.33,12.25,29.66,29.66,0,0,1-3.41,5.36,42.59,42.59,0,0,0,3-5.55,38,38,0,0,0,2.12-5.92,39.19,39.19,0,0,0,1.18-6.18A42.94,42.94,0,0,0,279.54,80.22Z"/><path class="cls-5" d="M272.6,77.82a36.91,36.91,0,0,1,0,6.22,42.81,42.81,0,0,1-1,6.15,40.57,40.57,0,0,1-1.94,5.92q-.62,1.44-1.32,2.82c-.25.46-.48.92-.76,1.37a2.21,2.21,0,0,1-1.15,1,2.19,2.19,0,0,0,1-1.1c.24-.45.43-.94.64-1.4.42-.94.81-1.9,1.17-2.87a48.22,48.22,0,0,0,1.8-5.89,47.64,47.64,0,0,0,1.1-6.07A60.29,60.29,0,0,0,272.6,77.82Z"/></g></g></g></svg>